<?xml version="1.0" encoding="UTF-8"?><svg xmlns="http://www.w3.org/2000/svg" xmlns:xlink="http://www.w3.org/1999/xlink" viewBox="0 0 32 32" version="1.1"><path d="M6 7.031c-.309 0-.598.059-.875.145L8.039 9.03h15.922l2.914-1.855A2.933 2.933 0 0 0 26 7.03zm-1.887.688A2.978 2.978 0 0 0 3 10.03v13c0 1.653 1.348 3 3 3h20c1.652 0 3-1.347 3-3v-13c0-.933-.438-1.761-1.113-2.312L16 15.28zM6 12.445l10 6.367 10-6.367v11.586H6z" id="surface1"/><metadata><rdf:RDF xmlns:rdf="http://www.w3.org/1999/02/22-rdf-syntax-ns#" xmlns:rdfs="http://www.w3.org/2000/01/rdf-schema#" xmlns:dc="http://purl.org/dc/elements/1.1/"><rdf:Description about="https://iconscout.com/legal#licenses" dc:title="gmail" dc:description="gmail" dc:publisher="Iconscout" dc:date="2017-12-30" dc:format="image/svg+xml" dc:language="en"><dc:creator><rdf:Bag><rdf:li>Icons8</rdf:li></rdf:Bag></dc:creator></rdf:Description></rdf:RDF></metadata></svg>