<?xml version="1.0" encoding="UTF-8" standalone="no"?>
<svg xmlns:dc="http://purl.org/dc/elements/1.1/" xmlns:cc="http://creativecommons.org/ns#" xmlns:rdf="http://www.w3.org/1999/02/22-rdf-syntax-ns#" xmlns:svg="http://www.w3.org/2000/svg" xmlns="http://www.w3.org/2000/svg" xmlns:sodipodi="http://sodipodi.sourceforge.net/DTD/sodipodi-0.dtd" xmlns:inkscape="http://www.inkscape.org/namespaces/inkscape" width="32px" height="32px" viewBox="0 0 32 32.000001" id="svg2" version="1.1" inkscape:version="0.91 r13725" sodipodi:docname="23 web earth online market planet search secure.svg">
  <defs id="defs4"/>
  <sodipodi:namedview id="base" pagecolor="#ffffff" bordercolor="#666666" borderopacity="1.0" inkscape:pageopacity="0.0" inkscape:pageshadow="2" inkscape:zoom="15.839192" inkscape:cx="13.217061" inkscape:cy="14.896434" inkscape:document-units="px" inkscape:current-layer="layer1" showgrid="true" units="px" inkscape:snap-bbox="true" inkscape:bbox-paths="true" inkscape:bbox-nodes="true" inkscape:snap-bbox-edge-midpoints="true" inkscape:snap-bbox-midpoints="true" inkscape:window-width="1920" inkscape:window-height="1027" inkscape:window-x="-8" inkscape:window-y="-8" inkscape:window-maximized="1" inkscape:snap-global="false">
    <inkscape:grid type="xygrid" id="grid3392"/>
  </sodipodi:namedview>
  
  <g inkscape:label="Layer 1" inkscape:groupmode="layer" id="layer1" transform="translate(0,-1020.3622)">
    <path style="color:#000000;font-style:normal;font-variant:normal;font-weight:normal;font-stretch:normal;font-size:medium;line-height:normal;font-family:sans-serif;text-indent:0;text-align:start;text-decoration:none;text-decoration-line:none;text-decoration-style:solid;text-decoration-color:#000000;letter-spacing:normal;word-spacing:normal;text-transform:none;direction:ltr;block-progression:tb;writing-mode:lr-tb;baseline-shift:baseline;text-anchor:start;white-space:normal;clip-rule:nonzero;display:inline;overflow:visible;visibility:visible;opacity:1;isolation:auto;mix-blend-mode:normal;color-interpolation:sRGB;color-interpolation-filters:linearRGB;solid-color:#000000;solid-opacity:1;fill:#000000;fill-opacity:1;fill-rule:nonzero;stroke:none;stroke-width:1;stroke-linecap:butt;stroke-linejoin:miter;stroke-miterlimit:4;stroke-dasharray:none;stroke-dashoffset:0;stroke-opacity:1;color-rendering:auto;image-rendering:auto;shape-rendering:auto;text-rendering:auto;enable-background:accumulate" d="M 15.681641 3.2539062 C 13.059502 3.3126146 10.441311 4.1795688 8.2265625 5.8789062 C 3.164294 9.7631062 1.7627018 16.808284 4.953125 22.333984 A 0.50050329 0.50050329 0 1 0 5.8203125 21.833984 C 2.8769571 16.736184 4.1656697 10.257228 8.8359375 6.6738281 C 13.172324 3.3465254 19.163095 3.4835808 23.330078 6.8515625 L 22.818359 6.8515625 A 0.50005 0.50005 0 1 0 22.818359 7.8515625 L 24.636719 7.8515625 A 0.50005 0.50005 0 0 0 25.136719 7.3515625 L 25.136719 5.5332031 A 0.50005 0.50005 0 0 0 24.628906 5.0273438 A 0.50005 0.50005 0 0 0 24.136719 5.5332031 L 24.136719 6.2167969 C 22.017323 4.4412151 19.438041 3.4519096 16.804688 3.2792969 C 16.43111 3.2548219 16.056232 3.2455193 15.681641 3.2539062 z M 15.972656 5.8691406 C 12.387504 5.8691406 9.3835428 7.8497219 7.5898438 10.669922 L 7.5683594 10.669922 L 7.5683594 10.699219 C 6.5856887 12.257219 5.8691406 13.995103 5.8691406 15.970703 C 5.8691406 17.946203 6.5856887 19.684188 7.5683594 21.242188 L 7.5683594 21.273438 L 7.5898438 21.273438 C 9.3835428 24.093738 12.387504 26.074219 15.972656 26.074219 C 19.557722 26.074219 22.561788 24.093738 24.355469 21.273438 L 24.375 21.273438 L 24.375 21.244141 C 25.358555 19.685641 26.076172 17.947203 26.076172 15.970703 C 26.076172 13.994203 25.358555 12.255766 24.375 10.697266 L 24.375 10.669922 L 24.355469 10.669922 C 22.561788 7.8497219 19.557722 5.8691406 15.972656 5.8691406 z M 15.472656 6.9707031 L 15.472656 10.669922 L 11.978516 10.669922 C 12.265844 9.6147902 12.611583 8.5515478 13.041016 7.4707031 C 13.805293 7.1999733 14.615081 7.0196372 15.472656 6.9707031 z M 16.472656 6.9707031 C 17.298769 7.0178432 18.080412 7.1878709 18.820312 7.4414062 C 19.254963 8.5325043 19.604557 9.6050795 19.894531 10.669922 L 16.472656 10.669922 L 16.472656 6.9707031 z M 20.082031 7.984375 C 21.29993 8.631735 22.352458 9.5498447 23.177734 10.669922 L 20.941406 10.669922 C 20.710631 9.7793111 20.410096 8.8833462 20.082031 7.984375 z M 11.773438 8.0292969 C 11.452375 8.9131922 11.156543 9.7940687 10.929688 10.669922 L 8.7675781 10.669922 C 9.5728922 9.5769501 10.593086 8.6741132 11.773438 8.0292969 z M 26.587891 9.4179688 A 0.50050307 0.50050307 0 0 0 26.179688 10.167969 C 29.123043 15.265769 27.834331 21.744625 23.164062 25.328125 C 18.836797 28.648337 12.863138 28.515289 8.6972656 25.167969 L 9.1777344 25.167969 A 0.50005 0.50005 0 1 0 9.1777344 24.167969 L 7.4414062 24.167969 A 0.50005 0.50005 0 0 0 7.2617188 24.177734 A 0.50005 0.50005 0 0 0 7.2597656 24.177734 A 0.50005 0.50005 0 0 0 6.859375 24.667969 L 6.859375 26.486328 A 0.50005 0.50005 0 1 0 7.859375 26.486328 L 7.859375 25.779297 C 9.9795727 27.557122 12.560197 28.549928 15.195312 28.722656 C 18.183934 28.918556 21.242296 28.065147 23.773438 26.123047 C 28.835705 22.238847 30.237298 15.193669 27.046875 9.6679688 A 0.50050307 0.50050307 0 0 0 26.587891 9.4179688 z M 8.09375 11.669922 L 10.691406 11.669922 C 10.416745 12.938458 10.247866 14.203585 10.193359 15.472656 L 6.9707031 15.472656 C 7.0499951 14.082756 7.4613083 12.823122 8.09375 11.669922 z M 11.705078 11.669922 L 15.472656 11.669922 L 15.472656 15.472656 L 11.181641 15.472656 C 11.239312 14.206683 11.413865 12.943724 11.705078 11.669922 z M 16.472656 11.669922 L 20.167969 11.669922 C 20.459183 12.943724 20.633734 14.206683 20.691406 15.472656 L 16.472656 15.472656 L 16.472656 11.669922 z M 21.179688 11.669922 L 23.851562 11.669922 C 24.483999 12.823122 24.895317 14.082756 24.974609 15.472656 L 21.677734 15.472656 C 21.623021 14.203585 21.454512 12.938458 21.179688 11.669922 z M 6.9707031 16.472656 L 10.175781 16.472656 C 10.182254 17.731264 10.300592 18.99683 10.546875 20.275391 L 8.09375 20.275391 C 7.4613083 19.122191 7.0499954 17.862456 6.9707031 16.472656 z M 11.162109 16.472656 L 15.472656 16.472656 L 15.472656 20.275391 L 11.556641 20.275391 C 11.294056 18.993814 11.169268 17.730238 11.162109 16.472656 z M 16.472656 16.472656 L 20.710938 16.472656 C 20.70378 17.730238 20.578992 18.993814 20.316406 20.275391 L 16.472656 20.275391 L 16.472656 16.472656 z M 21.695312 16.472656 L 24.974609 16.472656 C 24.895319 17.862456 24.483999 19.122191 23.851562 20.275391 L 21.326172 20.275391 C 21.5723 18.99683 21.689044 17.731264 21.695312 16.472656 z M 8.7675781 21.275391 L 10.767578 21.275391 C 10.967441 22.099933 11.214615 22.931952 11.521484 23.771484 C 10.448016 23.138219 9.5149882 22.289775 8.7675781 21.275391 z M 11.787109 21.275391 L 15.472656 21.275391 L 15.472656 24.974609 C 14.540977 24.92148 13.664269 24.715598 12.84375 24.402344 C 12.404076 23.343005 12.050871 22.301387 11.787109 21.275391 z M 16.472656 21.275391 L 20.085938 21.275391 C 19.819538 22.311645 19.461526 23.363263 19.015625 24.433594 C 18.219409 24.727969 17.372009 24.923322 16.472656 24.974609 L 16.472656 21.275391 z M 21.105469 21.275391 L 23.177734 21.275391 C 22.408512 22.31939 21.445446 23.19173 20.332031 23.830078 C 20.648632 22.97058 20.901035 22.119142 21.105469 21.275391 z " transform="translate(0,1020.3622)" id="path9544"/>
  </g>

	
	
	<metadata>
		<rdf:RDF xmlns:rdf="http://www.w3.org/1999/02/22-rdf-syntax-ns#" xmlns:rdfs="http://www.w3.org/2000/01/rdf-schema#" xmlns:dc="http://purl.org/dc/elements/1.1/">
			<rdf:Description about="https://iconscout.com/legal#licenses" dc:title="Web, Earth, Online, Market, Planet, Search, Secure" dc:description="Web, Earth, Online, Market, Planet, Search, Secure" dc:publisher="Iconscout" dc:date="2016-12-14" dc:format="image/svg+xml" dc:language="en">
				<dc:creator>
					<rdf:Bag>
						<rdf:li>Chamestudio</rdf:li>
					</rdf:Bag>
				</dc:creator>
			</rdf:Description>
		</rdf:RDF>
    </metadata></svg>
